<?xml version="1.0" encoding="utf-8"?>
<!-- Generator: Adobe Illustrator 15.0.2, SVG Export Plug-In  -->
<!DOCTYPE svg PUBLIC "-//W3C//DTD SVG 1.1//EN" "http://www.w3.org/Graphics/SVG/1.1/DTD/svg11.dtd" [
	<!ENTITY ns_flows "http://ns.adobe.com/Flows/1.0/">
]>
<svg version="1.1"
	 xmlns="http://www.w3.org/2000/svg" xmlns:xlink="http://www.w3.org/1999/xlink" xmlns:a="http://ns.adobe.com/AdobeSVGViewerExtensions/3.0/"
	 x="0px" y="0px" width="800px" height="488px" viewBox="-6.332 -2.773 800 488" enable-background="new -6.332 -2.773 800 488"
	 xml:space="preserve">
<defs>
</defs>
<path fill="#414141" d="M362.335,281.891c0,0,138.395,11.264,158.667,38c8.615,11.362-4.967,21.054-13.334,22.667
	c-19.085,3.68,144.666-5.333,168,12.667s-70.667,4-62,16s167.248,9.334,173.624,50s-32.291,45.999-67.624,36.666
	s-120-4.107-147.333,3.946s-142.667,29.387-178.667,14.054s-9.333-31.332-45.333-38.666s-213.334,16-238.667-12s-2-35.333,47.333-48
	s49.38-6.815,54.664-13.998c6.674-9.072-13.195-15.769-25.331-19.336c-22.669-6.664-182.583-11.332-186.292-18.666
	s231.599-12.856,380.292-5.334c47.31,2.394,52-13.334,30-18S359.002,285.891,362.335,281.891z"/>
<path fill="#404040" d="M173.236,108.881c2.998-14.996,8.615-29.521,16.337-42.879c7.821-13.305,17.825-25.395,29.562-35.599
	c5.855-5.117,12.128-9.782,18.742-13.948c6.632-4.136,13.733-7.547,21.116-10.125c3.704-1.254,7.448-2.377,11.241-3.291
	c3.804-0.869,7.624-1.642,11.486-2.114c7.705-1.017,15.496-1.24,23.163-0.445l0.02,0.699c-7.569,1.211-14.982,2.659-22.235,4.577
	c-3.617,0.995-7.214,2.002-10.739,3.224c-3.537,1.176-7.033,2.452-10.457,3.896c-6.872,2.818-13.571,6.005-20.098,9.561
	c-6.546,3.525-12.792,7.645-18.659,12.271C211,43.985,200.769,55.225,192.55,67.844c-8.333,12.559-14.566,26.542-18.634,41.203
	L173.236,108.881z"/>
<path fill="#404040" d="M269.368,279.37c-13.991-3.628-27.394-9.703-39.632-17.63c-12.182-8.024-23.152-17.972-32.411-29.375
	c-4.644-5.69-8.881-11.732-12.688-18.054c-3.775-6.34-6.893-13.084-9.271-20.072c-1.154-3.505-2.2-7.042-3.061-10.623
	c-0.816-3.591-1.563-7.193-2.033-10.836c-1.013-7.268-1.339-14.616-0.745-21.881l0.699-0.039c1.408,7.113,2.951,14.085,4.866,20.919
	c0.994,3.407,1.976,6.801,3.149,10.13c1.128,3.341,2.333,6.649,3.686,9.894c2.635,6.515,5.552,12.893,8.767,19.144
	c3.184,6.27,6.891,12.291,11.058,17.992c8.359,11.383,18.49,21.532,29.977,29.926c11.419,8.501,24.248,15.159,37.842,19.835
	L269.368,279.37z"/>
<path fill="#404040" d="M349.471,281.86c-8.879-0.58-17.711-2.039-26.3-4.37c-8.592-2.319-16.971-5.448-24.942-9.419
	c-15.969-7.883-30.385-18.936-42.214-32.333c-11.854-13.375-21.119-29.114-27.014-46.092c-5.885-16.981-8.397-35.146-7.45-53.153
	c1.003-18.002,5.465-35.85,13.2-52.202c7.712-16.359,18.655-31.209,32.038-43.442c13.368-12.246,29.184-21.864,46.304-28.012
	c17.11-6.173,35.504-8.818,53.698-7.777c18.195,0.992,36.232,5.674,52.636,13.759c16.422,8.045,31.215,19.422,43.285,33.216
	c12.021,13.831,21.358,30.025,27.202,47.432c2.892,8.709,4.961,17.697,6.095,26.801c1.127,9.104,1.369,18.309,0.752,27.444
	c-0.673,9.131-2.204,18.198-4.593,27.026c-2.399,8.827-5.735,17.38-9.815,25.533c-8.237,16.278-19.722,30.788-33.422,42.562
	c-13.722,11.756-29.673,20.754-46.671,26.371c-8.487,2.849-17.254,4.784-26.103,5.91
	C367.308,282.255,358.353,282.496,349.471,281.86z M349.53,280.962c8.833,0.47,17.703,0.065,26.436-1.227
	c8.733-1.304,17.3-3.581,25.55-6.639c8.249-3.072,16.136-7.05,23.557-11.708c7.411-4.681,14.318-10.112,20.63-16.13
	c12.651-12.017,22.809-26.483,29.908-42.222c3.598-7.851,6.375-16.049,8.42-24.406c2.061-8.354,3.308-16.899,3.747-25.482
	c0.975-17.158-1.319-34.456-6.751-50.715c-5.384-16.272-13.908-31.526-25.066-44.584c-11.079-13.116-24.769-24.068-40.106-31.896
	c-15.331-7.837-32.276-12.514-49.513-13.709c-17.235-1.205-34.715,1.076-51.078,6.745c-16.37,5.644-31.598,14.629-44.553,26.198
	c-12.968,11.557-23.668,25.683-31.293,41.34c-7.647,15.65-12.182,32.818-13.375,50.245c-1.289,17.419,0.762,35.117,6.15,51.807
	c5.333,16.701,13.928,32.411,25.254,45.924c5.673,6.744,12.001,12.957,18.908,18.464c6.919,5.487,14.372,10.328,22.27,14.314
	c7.899,3.975,16.194,7.188,24.745,9.47C331.922,279.027,340.695,280.431,349.53,280.962z"/>
<path fill="#404040" d="M322.2,52.317c10.444,3.674,20.226,9.305,28.721,16.497c8.502,7.186,15.722,15.923,21.221,25.668
	c5.47,9.76,9.201,20.517,10.953,31.612c1.761,11.096,1.556,22.506-0.562,33.578c-2.097,11.078-6.175,21.804-11.969,31.542
	c-2.938,4.844-6.297,9.442-10.06,13.688c-1.9,2.106-3.88,4.142-5.962,6.068c-2.091,1.916-4.264,3.742-6.51,5.47
	c-4.528,3.411-9.34,6.437-14.398,8.966c-5.069,2.5-10.342,4.587-15.775,6.072c-5.421,1.522-10.982,2.483-16.56,2.915
	c-5.582,0.37-11.179,0.305-16.682-0.419l0.031-0.499c11.031,0.013,21.929-1.809,32.163-5.353
	c10.221-3.575,19.785-8.862,28.141-15.62c4.194-3.358,8.09-7.075,11.673-11.07c3.589-3.988,6.872-8.264,9.728-12.818
	c5.805-9.049,9.988-19.171,12.261-29.739c2.271-10.565,2.725-21.557,1.266-32.308c-1.449-10.753-4.823-21.266-9.932-30.889
	c-5.065-9.645-11.863-18.414-20.012-25.733c-8.142-7.325-17.635-13.191-27.911-17.16L322.2,52.317z"/>
<path fill="#404040" d="M204.335,135.901c0.013,1.921-1.057,3.671-2.378,5.04c-1.33,1.397-2.939,2.53-4.627,3.519
	c-3.391,1.979-7.2,3.291-11.101,3.931c-0.977,0.165-1.967,0.162-2.951,0.176l-2.893,0.013h-5.668H163.38h-5.668
	c-1.912,0.014-3.932-0.074-5.878-0.292c-3.92-0.45-7.836-1.327-11.552-3.09c-1.845-0.899-3.666-2.014-5.221-3.683
	c-0.769-0.834-1.464-1.836-1.915-3.023c-0.22-0.594-0.378-1.229-0.442-1.881c-0.061-0.731-0.027-1.136-0.036-1.614v-5.668v-2.834
	v-1.417c0.011-0.5-0.03-0.842,0.045-1.638c0.145-1.309,0.657-2.515,1.316-3.506c0.664-0.996,1.462-1.813,2.301-2.513
	c1.688-1.392,3.539-2.357,5.417-3.131c3.771-1.521,7.698-2.27,11.626-2.584c1.961-0.167,3.964-0.15,5.82-0.147h5.668h11.337h5.675
	c1.924,0.002,3.871,0.068,5.811,0.218c1.942,0.151,3.888,0.386,5.834,0.751c1.928,0.416,3.942,0.715,5.819,1.642
	c1.846,0.92,3.747,2.114,5.042,4.1c0.636,0.98,1.017,2.191,1.01,3.354c-0.005,0.621-0.094,1.046-0.144,1.525l-0.175,1.417
	C204.605,128.344,204.325,132.123,204.335,135.901z M204.335,135.901c0.01-3.779-0.27-7.558-0.736-11.337l-0.175-1.417
	c-0.063-0.464-0.104-0.986-0.196-1.307c-0.191-0.722-0.586-1.314-1.117-1.818c-1.066-1.006-2.621-1.682-4.247-2.171
	c-1.635-0.473-3.303-1.105-5.085-1.394c-1.768-0.332-3.58-0.551-5.404-0.693c-1.828-0.142-3.66-0.205-5.516-0.207h-5.661h-11.337
	h-5.668c-1.923-0.002-3.704-0.018-5.51,0.136c-3.595,0.284-7.179,0.986-10.424,2.3c-1.611,0.659-3.141,1.482-4.371,2.502
	c-1.232,1.013-2.09,2.245-2.2,3.388c-0.029,0.145-0.018,0.75-0.02,1.194v1.417v2.834v5.668c-0.011,1.112-0.011,1.451,0.223,2.088
	c0.221,0.582,0.605,1.173,1.117,1.725c1.023,1.11,2.464,2.042,4.009,2.785c3.123,1.489,6.683,2.315,10.257,2.719
	c1.811,0.2,3.572,0.28,5.438,0.268h5.668h11.337h5.668c0.957-0.006,1.884,0.018,2.775-0.03c0.905-0.04,1.802-0.153,2.707-0.16
	c3.612-0.057,7.301-0.292,10.864-1.305c1.767-0.523,3.497-1.271,4.968-2.424C203.146,139.53,204.342,137.833,204.335,135.901z"/>
</svg>
